<mxfile host="app.diagrams.net" modified="2024-04-29T01:51:17.195Z" agent="Mozilla/5.0 (Windows NT 10.0; Win64; x64) AppleWebKit/537.36 (KHTML, like Gecko) Chrome/124.0.0.0 Safari/537.36 Edg/124.0.0.0" etag="ssFr_Ko5e2AmUWGiUdCC" version="24.2.5" type="github">
  <diagram name="페이지-1" id="luRm6ZoS_67JZN6vgYwa">
    <mxGraphModel dx="2852" dy="1502" grid="1" gridSize="10" guides="1" tooltips="1" connect="1" arrows="1" fold="1" page="1" pageScale="1" pageWidth="827" pageHeight="1169" math="0" shadow="0">
      <root>
        <mxCell id="0" />
        <mxCell id="1" parent="0" />
        <mxCell id="hgTVWzHPnjNBjNmEPsGD-20" value="" style="html=1;whiteSpace=wrap;shape=isoCube2;backgroundOutline=1;isoAngle=15;rounded=0;" parent="1" vertex="1">
          <mxGeometry x="307" y="230" width="30" height="33.33" as="geometry" />
        </mxCell>
        <mxCell id="hgTVWzHPnjNBjNmEPsGD-22" value="" style="endArrow=classic;html=1;rounded=0;" parent="1" edge="1">
          <mxGeometry width="50" height="50" relative="1" as="geometry">
            <mxPoint x="347" y="249.5" as="sourcePoint" />
            <mxPoint x="397" y="249.5" as="targetPoint" />
          </mxGeometry>
        </mxCell>
        <mxCell id="hgTVWzHPnjNBjNmEPsGD-55" value="" style="group;rounded=0;" parent="1" vertex="1" connectable="0">
          <mxGeometry x="423" y="215" width="330" height="90" as="geometry" />
        </mxCell>
        <mxCell id="hgTVWzHPnjNBjNmEPsGD-58" value="" style="rounded=0;whiteSpace=wrap;html=1;" parent="hgTVWzHPnjNBjNmEPsGD-55" vertex="1">
          <mxGeometry x="-19" y="-20" width="340" height="110" as="geometry" />
        </mxCell>
        <mxCell id="hgTVWzHPnjNBjNmEPsGD-26" value="" style="verticalLabelPosition=bottom;verticalAlign=top;html=1;shape=mxgraph.basic.layered_rect;dx=10;outlineConnect=0;whiteSpace=wrap;flipV=1;flipH=1;rounded=0;" parent="hgTVWzHPnjNBjNmEPsGD-55" vertex="1">
          <mxGeometry x="25.41015985790409" y="21.17522498676548" width="40.23275310834814" height="38.82477501323451" as="geometry" />
        </mxCell>
        <mxCell id="hgTVWzHPnjNBjNmEPsGD-27" value="" style="verticalLabelPosition=bottom;verticalAlign=top;html=1;shape=mxgraph.basic.layered_rect;dx=10;outlineConnect=0;whiteSpace=wrap;flipV=1;flipH=1;rounded=0;" parent="hgTVWzHPnjNBjNmEPsGD-55" vertex="1">
          <mxGeometry x="93.17058614564833" y="21.17522498676548" width="40.23275310834814" height="38.82477501323451" as="geometry" />
        </mxCell>
        <mxCell id="hgTVWzHPnjNBjNmEPsGD-34" value="" style="endArrow=classic;html=1;rounded=0;" parent="hgTVWzHPnjNBjNmEPsGD-55" edge="1">
          <mxGeometry width="50" height="50" relative="1" as="geometry">
            <mxPoint x="67.76042628774424" y="42.99629433562732" as="sourcePoint" />
            <mxPoint x="91.58245115452932" y="42.879830598200094" as="targetPoint" />
          </mxGeometry>
        </mxCell>
        <mxCell id="hgTVWzHPnjNBjNmEPsGD-40" value="" style="curved=1;endArrow=classic;html=1;rounded=0;" parent="hgTVWzHPnjNBjNmEPsGD-55" edge="1">
          <mxGeometry width="50" height="50" relative="1" as="geometry">
            <mxPoint x="81.52426287744228" y="38.644785600846994" as="sourcePoint" />
            <mxPoint x="142.9321492007105" y="38.644785600846994" as="targetPoint" />
            <Array as="points">
              <mxPoint x="91.58245115452932" y="10.58761249338274" />
              <mxPoint x="112.75758436944939" />
              <mxPoint x="132.34458259325046" y="10.58761249338274" />
            </Array>
          </mxGeometry>
        </mxCell>
        <mxCell id="hgTVWzHPnjNBjNmEPsGD-41" value="" style="shape=orEllipse;perimeter=ellipsePerimeter;whiteSpace=wrap;html=1;backgroundOutline=1;rounded=0;rotation=45;" parent="hgTVWzHPnjNBjNmEPsGD-55" vertex="1">
          <mxGeometry x="76.23047957371227" y="40.41291688724193" width="5.293783303730018" height="5.29380624669137" as="geometry" />
        </mxCell>
        <mxCell id="hgTVWzHPnjNBjNmEPsGD-44" value="" style="curved=1;endArrow=classic;html=1;rounded=0;" parent="hgTVWzHPnjNBjNmEPsGD-55" edge="1">
          <mxGeometry width="50" height="50" relative="1" as="geometry">
            <mxPoint x="14.822593250444053" y="38.644785600846994" as="sourcePoint" />
            <mxPoint x="76.23047957371227" y="38.644785600846994" as="targetPoint" />
            <Array as="points">
              <mxPoint x="24.880781527531088" y="10.58761249338274" />
              <mxPoint x="46.055914742451165" />
              <mxPoint x="65.64291296625223" y="10.58761249338274" />
            </Array>
          </mxGeometry>
        </mxCell>
        <mxCell id="hgTVWzHPnjNBjNmEPsGD-45" value="" style="verticalLabelPosition=bottom;verticalAlign=top;html=1;shape=mxgraph.basic.layered_rect;dx=10;outlineConnect=0;whiteSpace=wrap;flipV=1;flipH=1;rounded=0;" parent="hgTVWzHPnjNBjNmEPsGD-55" vertex="1">
          <mxGeometry x="159.87225577264655" y="21.17522498676548" width="40.23275310834814" height="38.82477501323451" as="geometry" />
        </mxCell>
        <mxCell id="hgTVWzHPnjNBjNmEPsGD-46" value="" style="verticalLabelPosition=bottom;verticalAlign=top;html=1;shape=mxgraph.basic.layered_rect;dx=10;outlineConnect=0;whiteSpace=wrap;flipV=1;flipH=1;rounded=0;" parent="hgTVWzHPnjNBjNmEPsGD-55" vertex="1">
          <mxGeometry x="227.6326820603908" y="21.17522498676548" width="40.23275310834814" height="38.82477501323451" as="geometry" />
        </mxCell>
        <mxCell id="hgTVWzHPnjNBjNmEPsGD-47" value="" style="endArrow=classic;html=1;rounded=0;" parent="hgTVWzHPnjNBjNmEPsGD-55" edge="1">
          <mxGeometry width="50" height="50" relative="1" as="geometry">
            <mxPoint x="202.22252220248672" y="42.99629433562732" as="sourcePoint" />
            <mxPoint x="226.0445470692718" y="42.879830598200094" as="targetPoint" />
          </mxGeometry>
        </mxCell>
        <mxCell id="hgTVWzHPnjNBjNmEPsGD-48" value="" style="curved=1;endArrow=classic;html=1;rounded=0;" parent="hgTVWzHPnjNBjNmEPsGD-55" edge="1">
          <mxGeometry width="50" height="50" relative="1" as="geometry">
            <mxPoint x="215.98635879218475" y="38.644785600846994" as="sourcePoint" />
            <mxPoint x="277.394245115453" y="38.644785600846994" as="targetPoint" />
            <Array as="points">
              <mxPoint x="226.0445470692718" y="10.58761249338274" />
              <mxPoint x="247.21968028419187" />
              <mxPoint x="266.80667850799296" y="10.58761249338274" />
            </Array>
          </mxGeometry>
        </mxCell>
        <mxCell id="hgTVWzHPnjNBjNmEPsGD-49" value="" style="shape=orEllipse;perimeter=ellipsePerimeter;whiteSpace=wrap;html=1;backgroundOutline=1;rounded=0;rotation=45;" parent="hgTVWzHPnjNBjNmEPsGD-55" vertex="1">
          <mxGeometry x="210.69257548845474" y="40.41291688724193" width="5.293783303730018" height="5.29380624669137" as="geometry" />
        </mxCell>
        <mxCell id="hgTVWzHPnjNBjNmEPsGD-50" value="" style="curved=1;endArrow=classic;html=1;rounded=0;" parent="hgTVWzHPnjNBjNmEPsGD-55" edge="1">
          <mxGeometry width="50" height="50" relative="1" as="geometry">
            <mxPoint x="149.28468916518653" y="38.644785600846994" as="sourcePoint" />
            <mxPoint x="210.69257548845474" y="38.644785600846994" as="targetPoint" />
            <Array as="points">
              <mxPoint x="159.34287744227356" y="10.58761249338274" />
              <mxPoint x="180.51801065719363" />
              <mxPoint x="200.10500888099472" y="10.58761249338274" />
            </Array>
          </mxGeometry>
        </mxCell>
        <mxCell id="hgTVWzHPnjNBjNmEPsGD-51" value="" style="endArrow=classic;html=1;rounded=0;" parent="hgTVWzHPnjNBjNmEPsGD-55" edge="1">
          <mxGeometry width="50" height="50" relative="1" as="geometry">
            <mxPoint x="134.99147424511548" y="42.99629433562732" as="sourcePoint" />
            <mxPoint x="158.81349911190057" y="42.879830598200094" as="targetPoint" />
          </mxGeometry>
        </mxCell>
        <mxCell id="hgTVWzHPnjNBjNmEPsGD-52" value="" style="shape=orEllipse;perimeter=ellipsePerimeter;whiteSpace=wrap;html=1;backgroundOutline=1;rounded=0;rotation=45;" parent="hgTVWzHPnjNBjNmEPsGD-55" vertex="1">
          <mxGeometry x="143.4615275310835" y="40.41291688724193" width="5.293783303730018" height="5.29380624669137" as="geometry" />
        </mxCell>
        <mxCell id="hgTVWzHPnjNBjNmEPsGD-53" value="" style="endArrow=classic;html=1;rounded=0;" parent="hgTVWzHPnjNBjNmEPsGD-55" edge="1">
          <mxGeometry width="50" height="50" relative="1" as="geometry">
            <mxPoint y="42.99629433562732" as="sourcePoint" />
            <mxPoint x="23.822024866785085" y="42.879830598200094" as="targetPoint" />
          </mxGeometry>
        </mxCell>
        <mxCell id="hgTVWzHPnjNBjNmEPsGD-54" value="" style="endArrow=classic;html=1;rounded=0;" parent="hgTVWzHPnjNBjNmEPsGD-55" edge="1">
          <mxGeometry width="50" height="50" relative="1" as="geometry">
            <mxPoint x="274.21797513321496" y="42.99629433562732" as="sourcePoint" />
            <mxPoint x="298.04" y="42.879830598200094" as="targetPoint" />
          </mxGeometry>
        </mxCell>
        <mxCell id="hgTVWzHPnjNBjNmEPsGD-60" value="" style="endArrow=classic;html=1;rounded=0;" parent="1" edge="1">
          <mxGeometry width="50" height="50" relative="1" as="geometry">
            <mxPoint x="810" y="331.5" as="sourcePoint" />
            <mxPoint x="860" y="331.5" as="targetPoint" />
          </mxGeometry>
        </mxCell>
        <mxCell id="hgTVWzHPnjNBjNmEPsGD-64" value="64 x 64 x 64" style="swimlane;fontStyle=1;childLayout=stackLayout;horizontal=1;startSize=26;horizontalStack=0;resizeParent=1;resizeParentMax=0;resizeLast=0;collapsible=1;marginBottom=0;strokeColor=none;opacity=0;" parent="1" vertex="1">
          <mxGeometry x="275.5" y="202" width="95" height="20" as="geometry" />
        </mxCell>
        <mxCell id="hgTVWzHPnjNBjNmEPsGD-65" value="480 x 480 x 160" style="swimlane;fontStyle=1;childLayout=stackLayout;horizontal=1;startSize=26;horizontalStack=0;resizeParent=1;resizeParentMax=0;resizeLast=0;collapsible=1;marginBottom=0;strokeColor=none;opacity=0;" parent="1" vertex="1">
          <mxGeometry x="112" y="171.5" width="120" height="20" as="geometry">
            <mxRectangle x="90" y="170" width="110" height="30" as="alternateBounds" />
          </mxGeometry>
        </mxCell>
        <mxCell id="hgTVWzHPnjNBjNmEPsGD-66" value="(28, 3)&#xa;regression" style="swimlane;fontStyle=1;childLayout=stackLayout;horizontal=1;startSize=26;horizontalStack=0;resizeParent=1;resizeParentMax=0;resizeLast=0;collapsible=1;marginBottom=0;strokeColor=none;opacity=0;" parent="1" vertex="1">
          <mxGeometry x="1012" y="321.5" width="68" height="20" as="geometry" />
        </mxCell>
        <mxCell id="hgTVWzHPnjNBjNmEPsGD-68" value="" style="endArrow=classic;html=1;rounded=0;" parent="1" edge="1">
          <mxGeometry width="50" height="50" relative="1" as="geometry">
            <mxPoint x="956.75" y="330.81" as="sourcePoint" />
            <mxPoint x="1006.75" y="330.81" as="targetPoint" />
          </mxGeometry>
        </mxCell>
        <mxCell id="hgTVWzHPnjNBjNmEPsGD-2" value="" style="endArrow=classic;html=1;rounded=0;movable=1;resizable=1;rotatable=1;deletable=1;editable=1;locked=0;connectable=1;" parent="1" edge="1">
          <mxGeometry width="50" height="50" relative="1" as="geometry">
            <mxPoint x="237" y="249.70999999999998" as="sourcePoint" />
            <mxPoint x="287" y="250.20999999999998" as="targetPoint" />
          </mxGeometry>
        </mxCell>
        <mxCell id="hgTVWzHPnjNBjNmEPsGD-69" value="" style="group" parent="1" vertex="1" connectable="0">
          <mxGeometry x="127" y="200" width="90" height="100" as="geometry" />
        </mxCell>
        <mxCell id="hgTVWzHPnjNBjNmEPsGD-9" value="" style="html=1;whiteSpace=wrap;shape=isoCube2;backgroundOutline=1;isoAngle=15;movable=1;resizable=1;rotatable=1;deletable=1;editable=1;locked=0;connectable=1;rounded=0;" parent="hgTVWzHPnjNBjNmEPsGD-69" vertex="1">
          <mxGeometry width="90" height="100" as="geometry" />
        </mxCell>
        <mxCell id="hgTVWzHPnjNBjNmEPsGD-4" value="" style="endArrow=none;html=1;rounded=0;exitX=0;exitY=0.25;exitDx=0;exitDy=0;entryX=0.644;entryY=0.06;entryDx=0;entryDy=0;entryPerimeter=0;movable=1;resizable=1;rotatable=1;deletable=1;editable=1;locked=0;connectable=1;" parent="hgTVWzHPnjNBjNmEPsGD-69" edge="1">
          <mxGeometry width="50" height="50" relative="1" as="geometry">
            <mxPoint x="14" y="28" as="sourcePoint" />
            <mxPoint x="57.960000000000036" y="7" as="targetPoint" />
          </mxGeometry>
        </mxCell>
        <mxCell id="hgTVWzHPnjNBjNmEPsGD-5" value="" style="endArrow=none;html=1;rounded=0;exitX=0;exitY=0.25;exitDx=0;exitDy=0;entryX=0.496;entryY=0.83;entryDx=0;entryDy=0;entryPerimeter=0;movable=1;resizable=1;rotatable=1;deletable=1;editable=1;locked=0;connectable=1;" parent="hgTVWzHPnjNBjNmEPsGD-69" edge="1">
          <mxGeometry width="50" height="50" relative="1" as="geometry">
            <mxPoint y="61" as="sourcePoint" />
            <mxPoint x="44.63999999999987" y="82" as="targetPoint" />
          </mxGeometry>
        </mxCell>
        <mxCell id="hgTVWzHPnjNBjNmEPsGD-6" value="" style="endArrow=none;html=1;rounded=0;exitX=0.154;exitY=0.287;exitDx=0;exitDy=0;exitPerimeter=0;movable=1;resizable=1;rotatable=1;deletable=1;editable=1;locked=0;connectable=1;" parent="hgTVWzHPnjNBjNmEPsGD-69" source="hgTVWzHPnjNBjNmEPsGD-9" edge="1">
          <mxGeometry width="50" height="50" relative="1" as="geometry">
            <mxPoint x="14" y="30" as="sourcePoint" />
            <mxPoint x="14" y="84" as="targetPoint" />
          </mxGeometry>
        </mxCell>
        <mxCell id="hgTVWzHPnjNBjNmEPsGD-7" value="" style="endArrow=none;html=1;rounded=0;exitX=0;exitY=0.25;exitDx=0;exitDy=0;movable=1;resizable=1;rotatable=1;deletable=1;editable=1;locked=0;connectable=1;" parent="hgTVWzHPnjNBjNmEPsGD-69" edge="1">
          <mxGeometry width="50" height="50" relative="1" as="geometry">
            <mxPoint x="29" y="36" as="sourcePoint" />
            <mxPoint x="29" y="91" as="targetPoint" />
          </mxGeometry>
        </mxCell>
        <mxCell id="hgTVWzHPnjNBjNmEPsGD-10" value="" style="endArrow=none;html=1;rounded=0;exitX=0;exitY=0.25;exitDx=0;exitDy=0;entryX=0.644;entryY=0.06;entryDx=0;entryDy=0;entryPerimeter=0;movable=1;resizable=1;rotatable=1;deletable=1;editable=1;locked=0;connectable=1;" parent="hgTVWzHPnjNBjNmEPsGD-69" edge="1">
          <mxGeometry width="50" height="50" relative="1" as="geometry">
            <mxPoint x="30" y="35" as="sourcePoint" />
            <mxPoint x="73.96000000000004" y="14" as="targetPoint" />
          </mxGeometry>
        </mxCell>
        <mxCell id="hgTVWzHPnjNBjNmEPsGD-12" value="" style="endArrow=none;html=1;rounded=0;exitX=0;exitY=0.25;exitDx=0;exitDy=0;entryX=0.499;entryY=0.641;entryDx=0;entryDy=0;entryPerimeter=0;movable=1;resizable=1;rotatable=1;deletable=1;editable=1;locked=0;connectable=1;" parent="hgTVWzHPnjNBjNmEPsGD-69" edge="1">
          <mxGeometry width="50" height="50" relative="1" as="geometry">
            <mxPoint y="43" as="sourcePoint" />
            <mxPoint x="44.90999999999997" y="63.10000000000002" as="targetPoint" />
          </mxGeometry>
        </mxCell>
        <mxCell id="hgTVWzHPnjNBjNmEPsGD-13" value="" style="endArrow=none;html=1;rounded=0;exitX=0.496;exitY=0.632;exitDx=0;exitDy=0;entryX=0.644;entryY=0.06;entryDx=0;entryDy=0;entryPerimeter=0;exitPerimeter=0;movable=1;resizable=1;rotatable=1;deletable=1;editable=1;locked=0;connectable=1;" parent="hgTVWzHPnjNBjNmEPsGD-69" source="hgTVWzHPnjNBjNmEPsGD-9" edge="1">
          <mxGeometry width="50" height="50" relative="1" as="geometry">
            <mxPoint x="46" y="63" as="sourcePoint" />
            <mxPoint x="89.96000000000004" y="42" as="targetPoint" />
          </mxGeometry>
        </mxCell>
        <mxCell id="hgTVWzHPnjNBjNmEPsGD-14" value="" style="endArrow=none;html=1;rounded=0;exitX=0.504;exitY=0.823;exitDx=0;exitDy=0;entryX=0.644;entryY=0.06;entryDx=0;entryDy=0;entryPerimeter=0;exitPerimeter=0;movable=1;resizable=1;rotatable=1;deletable=1;editable=1;locked=0;connectable=1;" parent="hgTVWzHPnjNBjNmEPsGD-69" source="hgTVWzHPnjNBjNmEPsGD-9" edge="1">
          <mxGeometry width="50" height="50" relative="1" as="geometry">
            <mxPoint x="46" y="82" as="sourcePoint" />
            <mxPoint x="89.96000000000004" y="61" as="targetPoint" />
          </mxGeometry>
        </mxCell>
        <mxCell id="hgTVWzHPnjNBjNmEPsGD-15" value="" style="endArrow=none;html=1;rounded=0;exitX=0.675;exitY=0.372;exitDx=0;exitDy=0;exitPerimeter=0;movable=1;resizable=1;rotatable=1;deletable=1;editable=1;locked=0;connectable=1;" parent="hgTVWzHPnjNBjNmEPsGD-69" edge="1">
          <mxGeometry width="50" height="50" relative="1" as="geometry">
            <mxPoint x="59.749999999999886" y="37.19999999999999" as="sourcePoint" />
            <mxPoint x="59.77000000000001" y="93" as="targetPoint" />
          </mxGeometry>
        </mxCell>
        <mxCell id="hgTVWzHPnjNBjNmEPsGD-17" value="" style="endArrow=none;html=1;rounded=0;exitX=0.675;exitY=0.372;exitDx=0;exitDy=0;exitPerimeter=0;movable=1;resizable=1;rotatable=1;deletable=1;editable=1;locked=0;connectable=1;" parent="hgTVWzHPnjNBjNmEPsGD-69" edge="1">
          <mxGeometry width="50" height="50" relative="1" as="geometry">
            <mxPoint x="74.74999999999989" y="30.19999999999999" as="sourcePoint" />
            <mxPoint x="74.77000000000001" y="86" as="targetPoint" />
          </mxGeometry>
        </mxCell>
        <mxCell id="hgTVWzHPnjNBjNmEPsGD-18" value="" style="endArrow=none;html=1;rounded=0;exitX=0.167;exitY=0.147;exitDx=0;exitDy=0;entryX=0.499;entryY=0.641;entryDx=0;entryDy=0;entryPerimeter=0;exitPerimeter=0;movable=1;resizable=1;rotatable=1;deletable=1;editable=1;locked=0;connectable=1;" parent="hgTVWzHPnjNBjNmEPsGD-69" edge="1">
          <mxGeometry width="50" height="50" relative="1" as="geometry">
            <mxPoint x="16.03000000000003" y="14.699999999999989" as="sourcePoint" />
            <mxPoint x="59.90999999999997" y="36.10000000000002" as="targetPoint" />
          </mxGeometry>
        </mxCell>
        <mxCell id="hgTVWzHPnjNBjNmEPsGD-19" value="" style="endArrow=none;html=1;rounded=0;exitX=0.343;exitY=0.073;exitDx=0;exitDy=0;entryX=0.499;entryY=0.641;entryDx=0;entryDy=0;entryPerimeter=0;exitPerimeter=0;movable=1;resizable=1;rotatable=1;deletable=1;editable=1;locked=0;connectable=1;" parent="hgTVWzHPnjNBjNmEPsGD-69" source="hgTVWzHPnjNBjNmEPsGD-9" edge="1">
          <mxGeometry width="50" height="50" relative="1" as="geometry">
            <mxPoint x="31" y="8" as="sourcePoint" />
            <mxPoint x="74.90999999999997" y="29.100000000000023" as="targetPoint" />
          </mxGeometry>
        </mxCell>
        <mxCell id="hgTVWzHPnjNBjNmEPsGD-70" value="DenseNet" style="swimlane;fontStyle=1;childLayout=stackLayout;horizontal=1;startSize=26;horizontalStack=0;resizeParent=1;resizeParentMax=0;resizeLast=0;collapsible=1;marginBottom=0;strokeColor=none;opacity=0;fontSize=13;" parent="1" vertex="1">
          <mxGeometry x="527.11" y="282" width="90" height="20" as="geometry" />
        </mxCell>
        <mxCell id="hgTVWzHPnjNBjNmEPsGD-90" value="" style="group" parent="1" vertex="1" connectable="0">
          <mxGeometry x="865.5" y="274" width="75" height="120" as="geometry" />
        </mxCell>
        <mxCell id="hgTVWzHPnjNBjNmEPsGD-71" value="" style="rounded=0;whiteSpace=wrap;html=1;rotation=90;" parent="hgTVWzHPnjNBjNmEPsGD-90" vertex="1">
          <mxGeometry x="-52.5" y="52.5" width="120" height="15" as="geometry" />
        </mxCell>
        <mxCell id="hgTVWzHPnjNBjNmEPsGD-74" value="" style="endArrow=none;html=1;entryX=0.032;entryY=1.007;entryDx=0;entryDy=0;entryPerimeter=0;exitX=1;exitY=0;exitDx=0;exitDy=0;" parent="hgTVWzHPnjNBjNmEPsGD-90" source="hgTVWzHPnjNBjNmEPsGD-71" target="hgTVWzHPnjNBjNmEPsGD-73" edge="1">
          <mxGeometry width="50" height="50" relative="1" as="geometry">
            <mxPoint x="17.5" y="118.5" as="sourcePoint" />
            <mxPoint x="57.5" y="8.5" as="targetPoint" />
          </mxGeometry>
        </mxCell>
        <mxCell id="hgTVWzHPnjNBjNmEPsGD-75" value="" style="endArrow=none;html=1;entryX=0.142;entryY=1.007;entryDx=0;entryDy=0;entryPerimeter=0;exitX=0.904;exitY=0.02;exitDx=0;exitDy=0;exitPerimeter=0;" parent="hgTVWzHPnjNBjNmEPsGD-90" source="hgTVWzHPnjNBjNmEPsGD-71" target="hgTVWzHPnjNBjNmEPsGD-73" edge="1">
          <mxGeometry width="50" height="50" relative="1" as="geometry">
            <mxPoint x="17.5" y="118.70999999999998" as="sourcePoint" />
            <mxPoint x="61.5" y="2.710000000000008" as="targetPoint" />
          </mxGeometry>
        </mxCell>
        <mxCell id="hgTVWzHPnjNBjNmEPsGD-76" value="" style="endArrow=none;html=1;entryX=0.25;entryY=1;entryDx=0;entryDy=0;exitX=0.788;exitY=-0.14;exitDx=0;exitDy=0;exitPerimeter=0;" parent="hgTVWzHPnjNBjNmEPsGD-90" target="hgTVWzHPnjNBjNmEPsGD-73" edge="1">
          <mxGeometry width="50" height="50" relative="1" as="geometry">
            <mxPoint x="16.09999999999991" y="94.56000000000006" as="sourcePoint" />
            <mxPoint x="59" y="30.710000000000036" as="targetPoint" />
          </mxGeometry>
        </mxCell>
        <mxCell id="hgTVWzHPnjNBjNmEPsGD-77" value="" style="endArrow=none;html=1;entryX=0.352;entryY=0.98;entryDx=0;entryDy=0;entryPerimeter=0;exitX=0.687;exitY=-0.015;exitDx=0;exitDy=0;exitPerimeter=0;" parent="hgTVWzHPnjNBjNmEPsGD-90" source="hgTVWzHPnjNBjNmEPsGD-71" target="hgTVWzHPnjNBjNmEPsGD-73" edge="1">
          <mxGeometry width="50" height="50" relative="1" as="geometry">
            <mxPoint x="17.5" y="78.5" as="sourcePoint" />
            <mxPoint x="60.39999999999998" y="30.50000000000003" as="targetPoint" />
          </mxGeometry>
        </mxCell>
        <mxCell id="hgTVWzHPnjNBjNmEPsGD-84" value="" style="endArrow=none;html=1;exitX=0.568;exitY=-0.078;exitDx=0;exitDy=0;exitPerimeter=0;entryX=0.47;entryY=1.005;entryDx=0;entryDy=0;entryPerimeter=0;" parent="hgTVWzHPnjNBjNmEPsGD-90" target="hgTVWzHPnjNBjNmEPsGD-73" edge="1">
          <mxGeometry width="50" height="50" relative="1" as="geometry">
            <mxPoint x="14.500000000000114" y="68.83000000000004" as="sourcePoint" />
            <mxPoint x="58.82499999999993" y="55.500000000000114" as="targetPoint" />
          </mxGeometry>
        </mxCell>
        <mxCell id="hgTVWzHPnjNBjNmEPsGD-85" value="" style="endArrow=none;html=1;entryX=0.032;entryY=1.007;entryDx=0;entryDy=0;entryPerimeter=0;exitX=1;exitY=0;exitDx=0;exitDy=0;" parent="hgTVWzHPnjNBjNmEPsGD-90" edge="1">
          <mxGeometry width="50" height="50" relative="1" as="geometry">
            <mxPoint x="15.5" y="1" as="sourcePoint" />
            <mxPoint x="59.5" y="120" as="targetPoint" />
          </mxGeometry>
        </mxCell>
        <mxCell id="hgTVWzHPnjNBjNmEPsGD-86" value="" style="endArrow=none;html=1;entryX=0.142;entryY=1.007;entryDx=0;entryDy=0;entryPerimeter=0;exitX=0.904;exitY=0.02;exitDx=0;exitDy=0;exitPerimeter=0;" parent="hgTVWzHPnjNBjNmEPsGD-90" edge="1">
          <mxGeometry width="50" height="50" relative="1" as="geometry">
            <mxPoint x="15.5" y="14" as="sourcePoint" />
            <mxPoint x="60.5" y="108" as="targetPoint" />
          </mxGeometry>
        </mxCell>
        <mxCell id="hgTVWzHPnjNBjNmEPsGD-87" value="" style="endArrow=none;html=1;entryX=0.25;entryY=1;entryDx=0;entryDy=0;exitX=0.788;exitY=-0.14;exitDx=0;exitDy=0;exitPerimeter=0;" parent="hgTVWzHPnjNBjNmEPsGD-90" edge="1">
          <mxGeometry width="50" height="50" relative="1" as="geometry">
            <mxPoint x="15.099999999999909" y="26.999999999999886" as="sourcePoint" />
            <mxPoint x="59.5" y="94.05999999999995" as="targetPoint" />
          </mxGeometry>
        </mxCell>
        <mxCell id="hgTVWzHPnjNBjNmEPsGD-88" value="" style="endArrow=none;html=1;entryX=0.352;entryY=0.98;entryDx=0;entryDy=0;entryPerimeter=0;exitX=0.687;exitY=-0.015;exitDx=0;exitDy=0;exitPerimeter=0;" parent="hgTVWzHPnjNBjNmEPsGD-90" edge="1">
          <mxGeometry width="50" height="50" relative="1" as="geometry">
            <mxPoint x="15.5" y="39" as="sourcePoint" />
            <mxPoint x="60.5" y="82" as="targetPoint" />
          </mxGeometry>
        </mxCell>
        <mxCell id="hgTVWzHPnjNBjNmEPsGD-89" value="" style="endArrow=none;html=1;exitX=0.568;exitY=-0.078;exitDx=0;exitDy=0;exitPerimeter=0;entryX=0.47;entryY=1.005;entryDx=0;entryDy=0;entryPerimeter=0;" parent="hgTVWzHPnjNBjNmEPsGD-90" edge="1">
          <mxGeometry width="50" height="50" relative="1" as="geometry">
            <mxPoint x="14.500000000000114" y="52.999999999999886" as="sourcePoint" />
            <mxPoint x="59.5" y="68.32999999999993" as="targetPoint" />
          </mxGeometry>
        </mxCell>
        <mxCell id="hgTVWzHPnjNBjNmEPsGD-73" value="" style="rounded=0;whiteSpace=wrap;html=1;rotation=90;" parent="hgTVWzHPnjNBjNmEPsGD-90" vertex="1">
          <mxGeometry x="7.5" y="52.5" width="120" height="15" as="geometry" />
        </mxCell>
        <mxCell id="hgTVWzHPnjNBjNmEPsGD-91" value="Fully Connected Layer" style="swimlane;fontStyle=1;childLayout=stackLayout;horizontal=1;startSize=26;horizontalStack=0;resizeParent=1;resizeParentMax=0;resizeLast=0;collapsible=1;marginBottom=0;strokeColor=none;opacity=0;fontSize=10;" parent="1" vertex="1">
          <mxGeometry x="821.13" y="395" width="163.75" height="20" as="geometry" />
        </mxCell>
        <mxCell id="YevyngudE0FrvX2Xh1Zj-1" value="" style="endArrow=none;html=1;rounded=0;" parent="1" edge="1">
          <mxGeometry width="50" height="50" relative="1" as="geometry">
            <mxPoint x="750" y="252" as="sourcePoint" />
            <mxPoint x="810" y="252" as="targetPoint" />
          </mxGeometry>
        </mxCell>
        <mxCell id="YevyngudE0FrvX2Xh1Zj-2" value="" style="endArrow=none;html=1;rounded=0;" parent="1" edge="1">
          <mxGeometry width="50" height="50" relative="1" as="geometry">
            <mxPoint x="810" y="332" as="sourcePoint" />
            <mxPoint x="810" y="252" as="targetPoint" />
          </mxGeometry>
        </mxCell>
        <mxCell id="YevyngudE0FrvX2Xh1Zj-37" value="" style="endArrow=classic;html=1;rounded=0;" parent="1" edge="1">
          <mxGeometry width="50" height="50" relative="1" as="geometry">
            <mxPoint x="810" y="171.5" as="sourcePoint" />
            <mxPoint x="860" y="171.5" as="targetPoint" />
          </mxGeometry>
        </mxCell>
        <mxCell id="YevyngudE0FrvX2Xh1Zj-38" value="(28, 1)&#xa;classification" style="swimlane;fontStyle=1;childLayout=stackLayout;horizontal=1;startSize=26;horizontalStack=0;resizeParent=1;resizeParentMax=0;resizeLast=0;collapsible=1;marginBottom=0;strokeColor=none;opacity=0;" parent="1" vertex="1">
          <mxGeometry x="1012" y="161.5" width="68" height="20" as="geometry" />
        </mxCell>
        <mxCell id="YevyngudE0FrvX2Xh1Zj-39" value="" style="endArrow=classic;html=1;rounded=0;" parent="1" edge="1">
          <mxGeometry width="50" height="50" relative="1" as="geometry">
            <mxPoint x="956.75" y="170.81" as="sourcePoint" />
            <mxPoint x="1006.75" y="170.81" as="targetPoint" />
          </mxGeometry>
        </mxCell>
        <mxCell id="YevyngudE0FrvX2Xh1Zj-40" value="" style="group" parent="1" vertex="1" connectable="0">
          <mxGeometry x="865.5" y="114" width="75" height="120" as="geometry" />
        </mxCell>
        <mxCell id="YevyngudE0FrvX2Xh1Zj-41" value="" style="rounded=0;whiteSpace=wrap;html=1;rotation=90;" parent="YevyngudE0FrvX2Xh1Zj-40" vertex="1">
          <mxGeometry x="-52.5" y="52.5" width="120" height="15" as="geometry" />
        </mxCell>
        <mxCell id="YevyngudE0FrvX2Xh1Zj-42" value="" style="endArrow=none;html=1;entryX=0.032;entryY=1.007;entryDx=0;entryDy=0;entryPerimeter=0;exitX=1;exitY=0;exitDx=0;exitDy=0;" parent="YevyngudE0FrvX2Xh1Zj-40" source="YevyngudE0FrvX2Xh1Zj-41" target="YevyngudE0FrvX2Xh1Zj-52" edge="1">
          <mxGeometry width="50" height="50" relative="1" as="geometry">
            <mxPoint x="17.5" y="118.5" as="sourcePoint" />
            <mxPoint x="57.5" y="8.5" as="targetPoint" />
          </mxGeometry>
        </mxCell>
        <mxCell id="YevyngudE0FrvX2Xh1Zj-43" value="" style="endArrow=none;html=1;entryX=0.142;entryY=1.007;entryDx=0;entryDy=0;entryPerimeter=0;exitX=0.904;exitY=0.02;exitDx=0;exitDy=0;exitPerimeter=0;" parent="YevyngudE0FrvX2Xh1Zj-40" source="YevyngudE0FrvX2Xh1Zj-41" target="YevyngudE0FrvX2Xh1Zj-52" edge="1">
          <mxGeometry width="50" height="50" relative="1" as="geometry">
            <mxPoint x="17.5" y="118.70999999999998" as="sourcePoint" />
            <mxPoint x="61.5" y="2.710000000000008" as="targetPoint" />
          </mxGeometry>
        </mxCell>
        <mxCell id="YevyngudE0FrvX2Xh1Zj-44" value="" style="endArrow=none;html=1;entryX=0.25;entryY=1;entryDx=0;entryDy=0;exitX=0.788;exitY=-0.14;exitDx=0;exitDy=0;exitPerimeter=0;" parent="YevyngudE0FrvX2Xh1Zj-40" target="YevyngudE0FrvX2Xh1Zj-52" edge="1">
          <mxGeometry width="50" height="50" relative="1" as="geometry">
            <mxPoint x="16.09999999999991" y="94.56000000000006" as="sourcePoint" />
            <mxPoint x="59" y="30.710000000000036" as="targetPoint" />
          </mxGeometry>
        </mxCell>
        <mxCell id="YevyngudE0FrvX2Xh1Zj-45" value="" style="endArrow=none;html=1;entryX=0.352;entryY=0.98;entryDx=0;entryDy=0;entryPerimeter=0;exitX=0.687;exitY=-0.015;exitDx=0;exitDy=0;exitPerimeter=0;" parent="YevyngudE0FrvX2Xh1Zj-40" source="YevyngudE0FrvX2Xh1Zj-41" target="YevyngudE0FrvX2Xh1Zj-52" edge="1">
          <mxGeometry width="50" height="50" relative="1" as="geometry">
            <mxPoint x="17.5" y="78.5" as="sourcePoint" />
            <mxPoint x="60.39999999999998" y="30.50000000000003" as="targetPoint" />
          </mxGeometry>
        </mxCell>
        <mxCell id="YevyngudE0FrvX2Xh1Zj-46" value="" style="endArrow=none;html=1;exitX=0.568;exitY=-0.078;exitDx=0;exitDy=0;exitPerimeter=0;entryX=0.47;entryY=1.005;entryDx=0;entryDy=0;entryPerimeter=0;" parent="YevyngudE0FrvX2Xh1Zj-40" target="YevyngudE0FrvX2Xh1Zj-52" edge="1">
          <mxGeometry width="50" height="50" relative="1" as="geometry">
            <mxPoint x="14.500000000000114" y="68.83000000000004" as="sourcePoint" />
            <mxPoint x="58.82499999999993" y="55.500000000000114" as="targetPoint" />
          </mxGeometry>
        </mxCell>
        <mxCell id="YevyngudE0FrvX2Xh1Zj-47" value="" style="endArrow=none;html=1;entryX=0.032;entryY=1.007;entryDx=0;entryDy=0;entryPerimeter=0;exitX=1;exitY=0;exitDx=0;exitDy=0;" parent="YevyngudE0FrvX2Xh1Zj-40" edge="1">
          <mxGeometry width="50" height="50" relative="1" as="geometry">
            <mxPoint x="15.5" y="1" as="sourcePoint" />
            <mxPoint x="59.5" y="120" as="targetPoint" />
          </mxGeometry>
        </mxCell>
        <mxCell id="YevyngudE0FrvX2Xh1Zj-48" value="" style="endArrow=none;html=1;entryX=0.142;entryY=1.007;entryDx=0;entryDy=0;entryPerimeter=0;exitX=0.904;exitY=0.02;exitDx=0;exitDy=0;exitPerimeter=0;" parent="YevyngudE0FrvX2Xh1Zj-40" edge="1">
          <mxGeometry width="50" height="50" relative="1" as="geometry">
            <mxPoint x="15.5" y="14" as="sourcePoint" />
            <mxPoint x="60.5" y="108" as="targetPoint" />
          </mxGeometry>
        </mxCell>
        <mxCell id="YevyngudE0FrvX2Xh1Zj-49" value="" style="endArrow=none;html=1;entryX=0.25;entryY=1;entryDx=0;entryDy=0;exitX=0.788;exitY=-0.14;exitDx=0;exitDy=0;exitPerimeter=0;" parent="YevyngudE0FrvX2Xh1Zj-40" edge="1">
          <mxGeometry width="50" height="50" relative="1" as="geometry">
            <mxPoint x="15.099999999999909" y="26.999999999999886" as="sourcePoint" />
            <mxPoint x="59.5" y="94.05999999999995" as="targetPoint" />
          </mxGeometry>
        </mxCell>
        <mxCell id="YevyngudE0FrvX2Xh1Zj-50" value="" style="endArrow=none;html=1;entryX=0.352;entryY=0.98;entryDx=0;entryDy=0;entryPerimeter=0;exitX=0.687;exitY=-0.015;exitDx=0;exitDy=0;exitPerimeter=0;" parent="YevyngudE0FrvX2Xh1Zj-40" edge="1">
          <mxGeometry width="50" height="50" relative="1" as="geometry">
            <mxPoint x="15.5" y="39" as="sourcePoint" />
            <mxPoint x="60.5" y="82" as="targetPoint" />
          </mxGeometry>
        </mxCell>
        <mxCell id="YevyngudE0FrvX2Xh1Zj-51" value="" style="endArrow=none;html=1;exitX=0.568;exitY=-0.078;exitDx=0;exitDy=0;exitPerimeter=0;entryX=0.47;entryY=1.005;entryDx=0;entryDy=0;entryPerimeter=0;" parent="YevyngudE0FrvX2Xh1Zj-40" edge="1">
          <mxGeometry width="50" height="50" relative="1" as="geometry">
            <mxPoint x="14.500000000000114" y="52.999999999999886" as="sourcePoint" />
            <mxPoint x="59.5" y="68.32999999999993" as="targetPoint" />
          </mxGeometry>
        </mxCell>
        <mxCell id="YevyngudE0FrvX2Xh1Zj-52" value="" style="rounded=0;whiteSpace=wrap;html=1;rotation=90;" parent="YevyngudE0FrvX2Xh1Zj-40" vertex="1">
          <mxGeometry x="7.5" y="52.5" width="120" height="15" as="geometry" />
        </mxCell>
        <mxCell id="YevyngudE0FrvX2Xh1Zj-53" value="Fully Connected Layer" style="swimlane;fontStyle=1;childLayout=stackLayout;horizontal=1;startSize=26;horizontalStack=0;resizeParent=1;resizeParentMax=0;resizeLast=0;collapsible=1;marginBottom=0;strokeColor=none;opacity=0;fontSize=10;" parent="1" vertex="1">
          <mxGeometry x="821.13" y="233" width="163.75" height="20" as="geometry" />
        </mxCell>
        <mxCell id="YevyngudE0FrvX2Xh1Zj-54" value="" style="endArrow=none;html=1;rounded=0;" parent="1" edge="1">
          <mxGeometry width="50" height="50" relative="1" as="geometry">
            <mxPoint x="810" y="252" as="sourcePoint" />
            <mxPoint x="810" y="172" as="targetPoint" />
          </mxGeometry>
        </mxCell>
        <mxCell id="YevyngudE0FrvX2Xh1Zj-55" value="" style="html=1;whiteSpace=wrap;shape=isoCube2;backgroundOutline=1;isoAngle=15;rounded=0;" parent="1" vertex="1">
          <mxGeometry x="317" y="626" width="30" height="33.33" as="geometry" />
        </mxCell>
        <mxCell id="YevyngudE0FrvX2Xh1Zj-56" value="" style="endArrow=classic;html=1;rounded=0;" parent="1" edge="1">
          <mxGeometry width="50" height="50" relative="1" as="geometry">
            <mxPoint x="357" y="645.5" as="sourcePoint" />
            <mxPoint x="407" y="645.5" as="targetPoint" />
          </mxGeometry>
        </mxCell>
        <mxCell id="YevyngudE0FrvX2Xh1Zj-57" value="" style="group;rounded=0;" parent="1" vertex="1" connectable="0">
          <mxGeometry x="433" y="611" width="330" height="90" as="geometry" />
        </mxCell>
        <mxCell id="YevyngudE0FrvX2Xh1Zj-58" value="" style="rounded=0;whiteSpace=wrap;html=1;" parent="YevyngudE0FrvX2Xh1Zj-57" vertex="1">
          <mxGeometry x="-19" y="-20" width="340" height="110" as="geometry" />
        </mxCell>
        <mxCell id="YevyngudE0FrvX2Xh1Zj-59" value="" style="verticalLabelPosition=bottom;verticalAlign=top;html=1;shape=mxgraph.basic.layered_rect;dx=10;outlineConnect=0;whiteSpace=wrap;flipV=1;flipH=1;rounded=0;" parent="YevyngudE0FrvX2Xh1Zj-57" vertex="1">
          <mxGeometry x="25.41015985790409" y="21.17522498676548" width="40.23275310834814" height="38.82477501323451" as="geometry" />
        </mxCell>
        <mxCell id="YevyngudE0FrvX2Xh1Zj-60" value="" style="verticalLabelPosition=bottom;verticalAlign=top;html=1;shape=mxgraph.basic.layered_rect;dx=10;outlineConnect=0;whiteSpace=wrap;flipV=1;flipH=1;rounded=0;" parent="YevyngudE0FrvX2Xh1Zj-57" vertex="1">
          <mxGeometry x="93.17058614564833" y="21.17522498676548" width="40.23275310834814" height="38.82477501323451" as="geometry" />
        </mxCell>
        <mxCell id="YevyngudE0FrvX2Xh1Zj-61" value="" style="endArrow=classic;html=1;rounded=0;" parent="YevyngudE0FrvX2Xh1Zj-57" edge="1">
          <mxGeometry width="50" height="50" relative="1" as="geometry">
            <mxPoint x="67.76042628774424" y="42.99629433562732" as="sourcePoint" />
            <mxPoint x="91.58245115452932" y="42.879830598200094" as="targetPoint" />
          </mxGeometry>
        </mxCell>
        <mxCell id="YevyngudE0FrvX2Xh1Zj-62" value="" style="curved=1;endArrow=classic;html=1;rounded=0;" parent="YevyngudE0FrvX2Xh1Zj-57" edge="1">
          <mxGeometry width="50" height="50" relative="1" as="geometry">
            <mxPoint x="81.52426287744228" y="38.644785600846994" as="sourcePoint" />
            <mxPoint x="142.9321492007105" y="38.644785600846994" as="targetPoint" />
            <Array as="points">
              <mxPoint x="91.58245115452932" y="10.58761249338274" />
              <mxPoint x="112.75758436944939" />
              <mxPoint x="132.34458259325046" y="10.58761249338274" />
            </Array>
          </mxGeometry>
        </mxCell>
        <mxCell id="YevyngudE0FrvX2Xh1Zj-63" value="" style="shape=orEllipse;perimeter=ellipsePerimeter;whiteSpace=wrap;html=1;backgroundOutline=1;rounded=0;rotation=45;" parent="YevyngudE0FrvX2Xh1Zj-57" vertex="1">
          <mxGeometry x="76.23047957371227" y="40.41291688724193" width="5.293783303730018" height="5.29380624669137" as="geometry" />
        </mxCell>
        <mxCell id="YevyngudE0FrvX2Xh1Zj-64" value="" style="curved=1;endArrow=classic;html=1;rounded=0;" parent="YevyngudE0FrvX2Xh1Zj-57" edge="1">
          <mxGeometry width="50" height="50" relative="1" as="geometry">
            <mxPoint x="14.822593250444053" y="38.644785600846994" as="sourcePoint" />
            <mxPoint x="76.23047957371227" y="38.644785600846994" as="targetPoint" />
            <Array as="points">
              <mxPoint x="24.880781527531088" y="10.58761249338274" />
              <mxPoint x="46.055914742451165" />
              <mxPoint x="65.64291296625223" y="10.58761249338274" />
            </Array>
          </mxGeometry>
        </mxCell>
        <mxCell id="YevyngudE0FrvX2Xh1Zj-65" value="" style="verticalLabelPosition=bottom;verticalAlign=top;html=1;shape=mxgraph.basic.layered_rect;dx=10;outlineConnect=0;whiteSpace=wrap;flipV=1;flipH=1;rounded=0;" parent="YevyngudE0FrvX2Xh1Zj-57" vertex="1">
          <mxGeometry x="159.87225577264655" y="21.17522498676548" width="40.23275310834814" height="38.82477501323451" as="geometry" />
        </mxCell>
        <mxCell id="YevyngudE0FrvX2Xh1Zj-66" value="" style="verticalLabelPosition=bottom;verticalAlign=top;html=1;shape=mxgraph.basic.layered_rect;dx=10;outlineConnect=0;whiteSpace=wrap;flipV=1;flipH=1;rounded=0;" parent="YevyngudE0FrvX2Xh1Zj-57" vertex="1">
          <mxGeometry x="227.6326820603908" y="21.17522498676548" width="40.23275310834814" height="38.82477501323451" as="geometry" />
        </mxCell>
        <mxCell id="YevyngudE0FrvX2Xh1Zj-67" value="" style="endArrow=classic;html=1;rounded=0;" parent="YevyngudE0FrvX2Xh1Zj-57" edge="1">
          <mxGeometry width="50" height="50" relative="1" as="geometry">
            <mxPoint x="202.22252220248672" y="42.99629433562732" as="sourcePoint" />
            <mxPoint x="226.0445470692718" y="42.879830598200094" as="targetPoint" />
          </mxGeometry>
        </mxCell>
        <mxCell id="YevyngudE0FrvX2Xh1Zj-68" value="" style="curved=1;endArrow=classic;html=1;rounded=0;" parent="YevyngudE0FrvX2Xh1Zj-57" edge="1">
          <mxGeometry width="50" height="50" relative="1" as="geometry">
            <mxPoint x="215.98635879218475" y="38.644785600846994" as="sourcePoint" />
            <mxPoint x="277.394245115453" y="38.644785600846994" as="targetPoint" />
            <Array as="points">
              <mxPoint x="226.0445470692718" y="10.58761249338274" />
              <mxPoint x="247.21968028419187" />
              <mxPoint x="266.80667850799296" y="10.58761249338274" />
            </Array>
          </mxGeometry>
        </mxCell>
        <mxCell id="YevyngudE0FrvX2Xh1Zj-69" value="" style="shape=orEllipse;perimeter=ellipsePerimeter;whiteSpace=wrap;html=1;backgroundOutline=1;rounded=0;rotation=45;" parent="YevyngudE0FrvX2Xh1Zj-57" vertex="1">
          <mxGeometry x="210.69257548845474" y="40.41291688724193" width="5.293783303730018" height="5.29380624669137" as="geometry" />
        </mxCell>
        <mxCell id="YevyngudE0FrvX2Xh1Zj-70" value="" style="curved=1;endArrow=classic;html=1;rounded=0;" parent="YevyngudE0FrvX2Xh1Zj-57" edge="1">
          <mxGeometry width="50" height="50" relative="1" as="geometry">
            <mxPoint x="149.28468916518653" y="38.644785600846994" as="sourcePoint" />
            <mxPoint x="210.69257548845474" y="38.644785600846994" as="targetPoint" />
            <Array as="points">
              <mxPoint x="159.34287744227356" y="10.58761249338274" />
              <mxPoint x="180.51801065719363" />
              <mxPoint x="200.10500888099472" y="10.58761249338274" />
            </Array>
          </mxGeometry>
        </mxCell>
        <mxCell id="YevyngudE0FrvX2Xh1Zj-71" value="" style="endArrow=classic;html=1;rounded=0;" parent="YevyngudE0FrvX2Xh1Zj-57" edge="1">
          <mxGeometry width="50" height="50" relative="1" as="geometry">
            <mxPoint x="134.99147424511548" y="42.99629433562732" as="sourcePoint" />
            <mxPoint x="158.81349911190057" y="42.879830598200094" as="targetPoint" />
          </mxGeometry>
        </mxCell>
        <mxCell id="YevyngudE0FrvX2Xh1Zj-72" value="" style="shape=orEllipse;perimeter=ellipsePerimeter;whiteSpace=wrap;html=1;backgroundOutline=1;rounded=0;rotation=45;" parent="YevyngudE0FrvX2Xh1Zj-57" vertex="1">
          <mxGeometry x="143.4615275310835" y="40.41291688724193" width="5.293783303730018" height="5.29380624669137" as="geometry" />
        </mxCell>
        <mxCell id="YevyngudE0FrvX2Xh1Zj-73" value="" style="endArrow=classic;html=1;rounded=0;" parent="YevyngudE0FrvX2Xh1Zj-57" edge="1">
          <mxGeometry width="50" height="50" relative="1" as="geometry">
            <mxPoint y="42.99629433562732" as="sourcePoint" />
            <mxPoint x="23.822024866785085" y="42.879830598200094" as="targetPoint" />
          </mxGeometry>
        </mxCell>
        <mxCell id="YevyngudE0FrvX2Xh1Zj-74" value="" style="endArrow=classic;html=1;rounded=0;" parent="YevyngudE0FrvX2Xh1Zj-57" edge="1">
          <mxGeometry width="50" height="50" relative="1" as="geometry">
            <mxPoint x="274.21797513321496" y="42.99629433562732" as="sourcePoint" />
            <mxPoint x="298.04" y="42.879830598200094" as="targetPoint" />
          </mxGeometry>
        </mxCell>
        <mxCell id="YevyngudE0FrvX2Xh1Zj-75" value="" style="endArrow=classic;html=1;rounded=0;" parent="1" edge="1">
          <mxGeometry width="50" height="50" relative="1" as="geometry">
            <mxPoint x="755" y="644.5" as="sourcePoint" />
            <mxPoint x="805" y="644.5" as="targetPoint" />
          </mxGeometry>
        </mxCell>
        <mxCell id="YevyngudE0FrvX2Xh1Zj-76" value="160 x 160 x 160" style="swimlane;fontStyle=1;childLayout=stackLayout;horizontal=1;startSize=26;horizontalStack=0;resizeParent=1;resizeParentMax=0;resizeLast=0;collapsible=1;marginBottom=0;strokeColor=none;opacity=0;" parent="1" vertex="1">
          <mxGeometry x="285.5" y="598" width="95" height="20" as="geometry" />
        </mxCell>
        <mxCell id="YevyngudE0FrvX2Xh1Zj-77" value="480 x 480 x 160" style="swimlane;fontStyle=1;childLayout=stackLayout;horizontal=1;startSize=26;horizontalStack=0;resizeParent=1;resizeParentMax=0;resizeLast=0;collapsible=1;marginBottom=0;strokeColor=none;opacity=0;" parent="1" vertex="1">
          <mxGeometry x="122" y="567.5" width="120" height="20" as="geometry">
            <mxRectangle x="90" y="170" width="110" height="30" as="alternateBounds" />
          </mxGeometry>
        </mxCell>
        <mxCell id="YevyngudE0FrvX2Xh1Zj-78" value="(28, 3)&#xa;regression" style="swimlane;fontStyle=1;childLayout=stackLayout;horizontal=1;startSize=26;horizontalStack=0;resizeParent=1;resizeParentMax=0;resizeLast=0;collapsible=1;marginBottom=0;strokeColor=none;opacity=0;" parent="1" vertex="1">
          <mxGeometry x="957" y="634.5" width="83" height="20" as="geometry" />
        </mxCell>
        <mxCell id="YevyngudE0FrvX2Xh1Zj-79" value="" style="endArrow=classic;html=1;rounded=0;" parent="1" edge="1">
          <mxGeometry width="50" height="50" relative="1" as="geometry">
            <mxPoint x="901.75" y="643.81" as="sourcePoint" />
            <mxPoint x="951.75" y="643.81" as="targetPoint" />
          </mxGeometry>
        </mxCell>
        <mxCell id="YevyngudE0FrvX2Xh1Zj-80" value="" style="endArrow=classic;html=1;rounded=0;movable=1;resizable=1;rotatable=1;deletable=1;editable=1;locked=0;connectable=1;" parent="1" edge="1">
          <mxGeometry width="50" height="50" relative="1" as="geometry">
            <mxPoint x="247" y="645.71" as="sourcePoint" />
            <mxPoint x="297" y="646.21" as="targetPoint" />
          </mxGeometry>
        </mxCell>
        <mxCell id="YevyngudE0FrvX2Xh1Zj-81" value="" style="group" parent="1" vertex="1" connectable="0">
          <mxGeometry x="137" y="596" width="90" height="100" as="geometry" />
        </mxCell>
        <mxCell id="YevyngudE0FrvX2Xh1Zj-82" value="" style="html=1;whiteSpace=wrap;shape=isoCube2;backgroundOutline=1;isoAngle=15;movable=1;resizable=1;rotatable=1;deletable=1;editable=1;locked=0;connectable=1;rounded=0;" parent="YevyngudE0FrvX2Xh1Zj-81" vertex="1">
          <mxGeometry width="90" height="100" as="geometry" />
        </mxCell>
        <mxCell id="YevyngudE0FrvX2Xh1Zj-95" value="DenseNet" style="swimlane;fontStyle=1;childLayout=stackLayout;horizontal=1;startSize=26;horizontalStack=0;resizeParent=1;resizeParentMax=0;resizeLast=0;collapsible=1;marginBottom=0;strokeColor=none;opacity=0;fontSize=13;" parent="1" vertex="1">
          <mxGeometry x="537.11" y="678" width="90" height="20" as="geometry" />
        </mxCell>
        <mxCell id="YevyngudE0FrvX2Xh1Zj-96" value="" style="group" parent="1" vertex="1" connectable="0">
          <mxGeometry x="810.5" y="587" width="75" height="120" as="geometry" />
        </mxCell>
        <mxCell id="YevyngudE0FrvX2Xh1Zj-97" value="" style="rounded=0;whiteSpace=wrap;html=1;rotation=90;" parent="YevyngudE0FrvX2Xh1Zj-96" vertex="1">
          <mxGeometry x="-52.5" y="52.5" width="120" height="15" as="geometry" />
        </mxCell>
        <mxCell id="YevyngudE0FrvX2Xh1Zj-98" value="" style="endArrow=none;html=1;entryX=0.032;entryY=1.007;entryDx=0;entryDy=0;entryPerimeter=0;exitX=1;exitY=0;exitDx=0;exitDy=0;" parent="YevyngudE0FrvX2Xh1Zj-96" source="YevyngudE0FrvX2Xh1Zj-97" target="YevyngudE0FrvX2Xh1Zj-108" edge="1">
          <mxGeometry width="50" height="50" relative="1" as="geometry">
            <mxPoint x="17.5" y="118.5" as="sourcePoint" />
            <mxPoint x="57.5" y="8.5" as="targetPoint" />
          </mxGeometry>
        </mxCell>
        <mxCell id="YevyngudE0FrvX2Xh1Zj-99" value="" style="endArrow=none;html=1;entryX=0.142;entryY=1.007;entryDx=0;entryDy=0;entryPerimeter=0;exitX=0.904;exitY=0.02;exitDx=0;exitDy=0;exitPerimeter=0;" parent="YevyngudE0FrvX2Xh1Zj-96" source="YevyngudE0FrvX2Xh1Zj-97" target="YevyngudE0FrvX2Xh1Zj-108" edge="1">
          <mxGeometry width="50" height="50" relative="1" as="geometry">
            <mxPoint x="17.5" y="118.70999999999998" as="sourcePoint" />
            <mxPoint x="61.5" y="2.710000000000008" as="targetPoint" />
          </mxGeometry>
        </mxCell>
        <mxCell id="YevyngudE0FrvX2Xh1Zj-100" value="" style="endArrow=none;html=1;entryX=0.25;entryY=1;entryDx=0;entryDy=0;exitX=0.788;exitY=-0.14;exitDx=0;exitDy=0;exitPerimeter=0;" parent="YevyngudE0FrvX2Xh1Zj-96" target="YevyngudE0FrvX2Xh1Zj-108" edge="1">
          <mxGeometry width="50" height="50" relative="1" as="geometry">
            <mxPoint x="16.09999999999991" y="94.56000000000006" as="sourcePoint" />
            <mxPoint x="59" y="30.710000000000036" as="targetPoint" />
          </mxGeometry>
        </mxCell>
        <mxCell id="YevyngudE0FrvX2Xh1Zj-101" value="" style="endArrow=none;html=1;entryX=0.352;entryY=0.98;entryDx=0;entryDy=0;entryPerimeter=0;exitX=0.687;exitY=-0.015;exitDx=0;exitDy=0;exitPerimeter=0;" parent="YevyngudE0FrvX2Xh1Zj-96" source="YevyngudE0FrvX2Xh1Zj-97" target="YevyngudE0FrvX2Xh1Zj-108" edge="1">
          <mxGeometry width="50" height="50" relative="1" as="geometry">
            <mxPoint x="17.5" y="78.5" as="sourcePoint" />
            <mxPoint x="60.39999999999998" y="30.50000000000003" as="targetPoint" />
          </mxGeometry>
        </mxCell>
        <mxCell id="YevyngudE0FrvX2Xh1Zj-102" value="" style="endArrow=none;html=1;exitX=0.568;exitY=-0.078;exitDx=0;exitDy=0;exitPerimeter=0;entryX=0.47;entryY=1.005;entryDx=0;entryDy=0;entryPerimeter=0;" parent="YevyngudE0FrvX2Xh1Zj-96" target="YevyngudE0FrvX2Xh1Zj-108" edge="1">
          <mxGeometry width="50" height="50" relative="1" as="geometry">
            <mxPoint x="14.500000000000114" y="68.83000000000004" as="sourcePoint" />
            <mxPoint x="58.82499999999993" y="55.500000000000114" as="targetPoint" />
          </mxGeometry>
        </mxCell>
        <mxCell id="YevyngudE0FrvX2Xh1Zj-103" value="" style="endArrow=none;html=1;entryX=0.032;entryY=1.007;entryDx=0;entryDy=0;entryPerimeter=0;exitX=1;exitY=0;exitDx=0;exitDy=0;" parent="YevyngudE0FrvX2Xh1Zj-96" edge="1">
          <mxGeometry width="50" height="50" relative="1" as="geometry">
            <mxPoint x="15.5" y="1" as="sourcePoint" />
            <mxPoint x="59.5" y="120" as="targetPoint" />
          </mxGeometry>
        </mxCell>
        <mxCell id="YevyngudE0FrvX2Xh1Zj-104" value="" style="endArrow=none;html=1;entryX=0.142;entryY=1.007;entryDx=0;entryDy=0;entryPerimeter=0;exitX=0.904;exitY=0.02;exitDx=0;exitDy=0;exitPerimeter=0;" parent="YevyngudE0FrvX2Xh1Zj-96" edge="1">
          <mxGeometry width="50" height="50" relative="1" as="geometry">
            <mxPoint x="15.5" y="14" as="sourcePoint" />
            <mxPoint x="60.5" y="108" as="targetPoint" />
          </mxGeometry>
        </mxCell>
        <mxCell id="YevyngudE0FrvX2Xh1Zj-105" value="" style="endArrow=none;html=1;entryX=0.25;entryY=1;entryDx=0;entryDy=0;exitX=0.788;exitY=-0.14;exitDx=0;exitDy=0;exitPerimeter=0;" parent="YevyngudE0FrvX2Xh1Zj-96" edge="1">
          <mxGeometry width="50" height="50" relative="1" as="geometry">
            <mxPoint x="15.099999999999909" y="26.999999999999886" as="sourcePoint" />
            <mxPoint x="59.5" y="94.05999999999995" as="targetPoint" />
          </mxGeometry>
        </mxCell>
        <mxCell id="YevyngudE0FrvX2Xh1Zj-106" value="" style="endArrow=none;html=1;entryX=0.352;entryY=0.98;entryDx=0;entryDy=0;entryPerimeter=0;exitX=0.687;exitY=-0.015;exitDx=0;exitDy=0;exitPerimeter=0;" parent="YevyngudE0FrvX2Xh1Zj-96" edge="1">
          <mxGeometry width="50" height="50" relative="1" as="geometry">
            <mxPoint x="15.5" y="39" as="sourcePoint" />
            <mxPoint x="60.5" y="82" as="targetPoint" />
          </mxGeometry>
        </mxCell>
        <mxCell id="YevyngudE0FrvX2Xh1Zj-107" value="" style="endArrow=none;html=1;exitX=0.568;exitY=-0.078;exitDx=0;exitDy=0;exitPerimeter=0;entryX=0.47;entryY=1.005;entryDx=0;entryDy=0;entryPerimeter=0;" parent="YevyngudE0FrvX2Xh1Zj-96" edge="1">
          <mxGeometry width="50" height="50" relative="1" as="geometry">
            <mxPoint x="14.500000000000114" y="52.999999999999886" as="sourcePoint" />
            <mxPoint x="59.5" y="68.32999999999993" as="targetPoint" />
          </mxGeometry>
        </mxCell>
        <mxCell id="YevyngudE0FrvX2Xh1Zj-108" value="" style="rounded=0;whiteSpace=wrap;html=1;rotation=90;" parent="YevyngudE0FrvX2Xh1Zj-96" vertex="1">
          <mxGeometry x="7.5" y="52.5" width="120" height="15" as="geometry" />
        </mxCell>
        <mxCell id="YevyngudE0FrvX2Xh1Zj-109" value="Fully Connected Layer" style="swimlane;fontStyle=1;childLayout=stackLayout;horizontal=1;startSize=26;horizontalStack=0;resizeParent=1;resizeParentMax=0;resizeLast=0;collapsible=1;marginBottom=0;strokeColor=none;opacity=0;fontSize=10;" parent="1" vertex="1">
          <mxGeometry x="766.13" y="708" width="163.75" height="20" as="geometry" />
        </mxCell>
        <mxCell id="4NQOsVs-KkwyuoudooMm-1" value="" style="html=1;whiteSpace=wrap;shape=isoCube2;backgroundOutline=1;isoAngle=15;rounded=0;" vertex="1" parent="1">
          <mxGeometry x="325" y="988.5" width="30" height="33.33" as="geometry" />
        </mxCell>
        <mxCell id="4NQOsVs-KkwyuoudooMm-2" value="" style="endArrow=classic;html=1;rounded=0;" edge="1" parent="1">
          <mxGeometry width="50" height="50" relative="1" as="geometry">
            <mxPoint x="364" y="1008" as="sourcePoint" />
            <mxPoint x="519" y="1008" as="targetPoint" />
          </mxGeometry>
        </mxCell>
        <mxCell id="4NQOsVs-KkwyuoudooMm-3" value="" style="group;rounded=0;" vertex="1" connectable="0" parent="1">
          <mxGeometry x="827" y="973.5" width="330" height="90" as="geometry" />
        </mxCell>
        <mxCell id="4NQOsVs-KkwyuoudooMm-4" value="" style="rounded=0;whiteSpace=wrap;html=1;" vertex="1" parent="4NQOsVs-KkwyuoudooMm-3">
          <mxGeometry x="-19" y="-20" width="340" height="110" as="geometry" />
        </mxCell>
        <mxCell id="4NQOsVs-KkwyuoudooMm-5" value="" style="verticalLabelPosition=bottom;verticalAlign=top;html=1;shape=mxgraph.basic.layered_rect;dx=10;outlineConnect=0;whiteSpace=wrap;flipV=1;flipH=1;rounded=0;" vertex="1" parent="4NQOsVs-KkwyuoudooMm-3">
          <mxGeometry x="25.41015985790409" y="21.17522498676548" width="40.23275310834814" height="38.82477501323451" as="geometry" />
        </mxCell>
        <mxCell id="4NQOsVs-KkwyuoudooMm-6" value="" style="verticalLabelPosition=bottom;verticalAlign=top;html=1;shape=mxgraph.basic.layered_rect;dx=10;outlineConnect=0;whiteSpace=wrap;flipV=1;flipH=1;rounded=0;" vertex="1" parent="4NQOsVs-KkwyuoudooMm-3">
          <mxGeometry x="93.17058614564833" y="21.17522498676548" width="40.23275310834814" height="38.82477501323451" as="geometry" />
        </mxCell>
        <mxCell id="4NQOsVs-KkwyuoudooMm-7" value="" style="endArrow=classic;html=1;rounded=0;" edge="1" parent="4NQOsVs-KkwyuoudooMm-3">
          <mxGeometry width="50" height="50" relative="1" as="geometry">
            <mxPoint x="67.76042628774424" y="42.99629433562732" as="sourcePoint" />
            <mxPoint x="91.58245115452932" y="42.879830598200094" as="targetPoint" />
          </mxGeometry>
        </mxCell>
        <mxCell id="4NQOsVs-KkwyuoudooMm-8" value="" style="curved=1;endArrow=classic;html=1;rounded=0;" edge="1" parent="4NQOsVs-KkwyuoudooMm-3">
          <mxGeometry width="50" height="50" relative="1" as="geometry">
            <mxPoint x="81.52426287744228" y="38.644785600846994" as="sourcePoint" />
            <mxPoint x="142.9321492007105" y="38.644785600846994" as="targetPoint" />
            <Array as="points">
              <mxPoint x="91.58245115452932" y="10.58761249338274" />
              <mxPoint x="112.75758436944939" />
              <mxPoint x="132.34458259325046" y="10.58761249338274" />
            </Array>
          </mxGeometry>
        </mxCell>
        <mxCell id="4NQOsVs-KkwyuoudooMm-9" value="" style="shape=orEllipse;perimeter=ellipsePerimeter;whiteSpace=wrap;html=1;backgroundOutline=1;rounded=0;rotation=45;" vertex="1" parent="4NQOsVs-KkwyuoudooMm-3">
          <mxGeometry x="76.23047957371227" y="40.41291688724193" width="5.293783303730018" height="5.29380624669137" as="geometry" />
        </mxCell>
        <mxCell id="4NQOsVs-KkwyuoudooMm-10" value="" style="curved=1;endArrow=classic;html=1;rounded=0;" edge="1" parent="4NQOsVs-KkwyuoudooMm-3">
          <mxGeometry width="50" height="50" relative="1" as="geometry">
            <mxPoint x="14.822593250444053" y="38.644785600846994" as="sourcePoint" />
            <mxPoint x="76.23047957371227" y="38.644785600846994" as="targetPoint" />
            <Array as="points">
              <mxPoint x="24.880781527531088" y="10.58761249338274" />
              <mxPoint x="46.055914742451165" />
              <mxPoint x="65.64291296625223" y="10.58761249338274" />
            </Array>
          </mxGeometry>
        </mxCell>
        <mxCell id="4NQOsVs-KkwyuoudooMm-11" value="" style="verticalLabelPosition=bottom;verticalAlign=top;html=1;shape=mxgraph.basic.layered_rect;dx=10;outlineConnect=0;whiteSpace=wrap;flipV=1;flipH=1;rounded=0;" vertex="1" parent="4NQOsVs-KkwyuoudooMm-3">
          <mxGeometry x="159.87225577264655" y="21.17522498676548" width="40.23275310834814" height="38.82477501323451" as="geometry" />
        </mxCell>
        <mxCell id="4NQOsVs-KkwyuoudooMm-12" value="" style="verticalLabelPosition=bottom;verticalAlign=top;html=1;shape=mxgraph.basic.layered_rect;dx=10;outlineConnect=0;whiteSpace=wrap;flipV=1;flipH=1;rounded=0;" vertex="1" parent="4NQOsVs-KkwyuoudooMm-3">
          <mxGeometry x="227.6326820603908" y="21.17522498676548" width="40.23275310834814" height="38.82477501323451" as="geometry" />
        </mxCell>
        <mxCell id="4NQOsVs-KkwyuoudooMm-13" value="" style="endArrow=classic;html=1;rounded=0;" edge="1" parent="4NQOsVs-KkwyuoudooMm-3">
          <mxGeometry width="50" height="50" relative="1" as="geometry">
            <mxPoint x="202.22252220248672" y="42.99629433562732" as="sourcePoint" />
            <mxPoint x="226.0445470692718" y="42.879830598200094" as="targetPoint" />
          </mxGeometry>
        </mxCell>
        <mxCell id="4NQOsVs-KkwyuoudooMm-14" value="" style="curved=1;endArrow=classic;html=1;rounded=0;" edge="1" parent="4NQOsVs-KkwyuoudooMm-3">
          <mxGeometry width="50" height="50" relative="1" as="geometry">
            <mxPoint x="215.98635879218475" y="38.644785600846994" as="sourcePoint" />
            <mxPoint x="277.394245115453" y="38.644785600846994" as="targetPoint" />
            <Array as="points">
              <mxPoint x="226.0445470692718" y="10.58761249338274" />
              <mxPoint x="247.21968028419187" />
              <mxPoint x="266.80667850799296" y="10.58761249338274" />
            </Array>
          </mxGeometry>
        </mxCell>
        <mxCell id="4NQOsVs-KkwyuoudooMm-15" value="" style="shape=orEllipse;perimeter=ellipsePerimeter;whiteSpace=wrap;html=1;backgroundOutline=1;rounded=0;rotation=45;" vertex="1" parent="4NQOsVs-KkwyuoudooMm-3">
          <mxGeometry x="210.69257548845474" y="40.41291688724193" width="5.293783303730018" height="5.29380624669137" as="geometry" />
        </mxCell>
        <mxCell id="4NQOsVs-KkwyuoudooMm-16" value="" style="curved=1;endArrow=classic;html=1;rounded=0;" edge="1" parent="4NQOsVs-KkwyuoudooMm-3">
          <mxGeometry width="50" height="50" relative="1" as="geometry">
            <mxPoint x="149.28468916518653" y="38.644785600846994" as="sourcePoint" />
            <mxPoint x="210.69257548845474" y="38.644785600846994" as="targetPoint" />
            <Array as="points">
              <mxPoint x="159.34287744227356" y="10.58761249338274" />
              <mxPoint x="180.51801065719363" />
              <mxPoint x="200.10500888099472" y="10.58761249338274" />
            </Array>
          </mxGeometry>
        </mxCell>
        <mxCell id="4NQOsVs-KkwyuoudooMm-17" value="" style="endArrow=classic;html=1;rounded=0;" edge="1" parent="4NQOsVs-KkwyuoudooMm-3">
          <mxGeometry width="50" height="50" relative="1" as="geometry">
            <mxPoint x="134.99147424511548" y="42.99629433562732" as="sourcePoint" />
            <mxPoint x="158.81349911190057" y="42.879830598200094" as="targetPoint" />
          </mxGeometry>
        </mxCell>
        <mxCell id="4NQOsVs-KkwyuoudooMm-18" value="" style="shape=orEllipse;perimeter=ellipsePerimeter;whiteSpace=wrap;html=1;backgroundOutline=1;rounded=0;rotation=45;" vertex="1" parent="4NQOsVs-KkwyuoudooMm-3">
          <mxGeometry x="143.4615275310835" y="40.41291688724193" width="5.293783303730018" height="5.29380624669137" as="geometry" />
        </mxCell>
        <mxCell id="4NQOsVs-KkwyuoudooMm-19" value="" style="endArrow=classic;html=1;rounded=0;" edge="1" parent="4NQOsVs-KkwyuoudooMm-3">
          <mxGeometry width="50" height="50" relative="1" as="geometry">
            <mxPoint y="42.99629433562732" as="sourcePoint" />
            <mxPoint x="23.822024866785085" y="42.879830598200094" as="targetPoint" />
          </mxGeometry>
        </mxCell>
        <mxCell id="4NQOsVs-KkwyuoudooMm-20" value="" style="endArrow=classic;html=1;rounded=0;" edge="1" parent="4NQOsVs-KkwyuoudooMm-3">
          <mxGeometry width="50" height="50" relative="1" as="geometry">
            <mxPoint x="274.21797513321496" y="42.99629433562732" as="sourcePoint" />
            <mxPoint x="298.04" y="42.879830598200094" as="targetPoint" />
          </mxGeometry>
        </mxCell>
        <mxCell id="4NQOsVs-KkwyuoudooMm-21" value="" style="endArrow=classic;html=1;rounded=0;" edge="1" parent="1">
          <mxGeometry width="50" height="50" relative="1" as="geometry">
            <mxPoint x="1149" y="1007" as="sourcePoint" />
            <mxPoint x="1199" y="1007" as="targetPoint" />
          </mxGeometry>
        </mxCell>
        <mxCell id="4NQOsVs-KkwyuoudooMm-22" value="160 x 160 x 160" style="swimlane;fontStyle=1;childLayout=stackLayout;horizontal=1;startSize=26;horizontalStack=0;resizeParent=1;resizeParentMax=0;resizeLast=0;collapsible=1;marginBottom=0;strokeColor=none;opacity=0;" vertex="1" parent="1">
          <mxGeometry x="293.5" y="960.5" width="95" height="20" as="geometry" />
        </mxCell>
        <mxCell id="4NQOsVs-KkwyuoudooMm-23" value="480 x 480 x 160" style="swimlane;fontStyle=1;childLayout=stackLayout;horizontal=1;startSize=26;horizontalStack=0;resizeParent=1;resizeParentMax=0;resizeLast=0;collapsible=1;marginBottom=0;strokeColor=none;opacity=0;" vertex="1" parent="1">
          <mxGeometry x="130" y="930" width="120" height="20" as="geometry">
            <mxRectangle x="90" y="170" width="110" height="30" as="alternateBounds" />
          </mxGeometry>
        </mxCell>
        <mxCell id="4NQOsVs-KkwyuoudooMm-24" value="(28, 3)&#xa;regression" style="swimlane;fontStyle=1;childLayout=stackLayout;horizontal=1;startSize=26;horizontalStack=0;resizeParent=1;resizeParentMax=0;resizeLast=0;collapsible=1;marginBottom=0;strokeColor=none;opacity=0;" vertex="1" parent="1">
          <mxGeometry x="1351" y="997" width="83" height="20" as="geometry" />
        </mxCell>
        <mxCell id="4NQOsVs-KkwyuoudooMm-25" value="" style="endArrow=classic;html=1;rounded=0;" edge="1" parent="1">
          <mxGeometry width="50" height="50" relative="1" as="geometry">
            <mxPoint x="1295.75" y="1006.31" as="sourcePoint" />
            <mxPoint x="1345.75" y="1006.31" as="targetPoint" />
          </mxGeometry>
        </mxCell>
        <mxCell id="4NQOsVs-KkwyuoudooMm-26" value="" style="endArrow=classic;html=1;rounded=0;movable=1;resizable=1;rotatable=1;deletable=1;editable=1;locked=0;connectable=1;" edge="1" parent="1">
          <mxGeometry width="50" height="50" relative="1" as="geometry">
            <mxPoint x="255" y="1008.21" as="sourcePoint" />
            <mxPoint x="305" y="1008.71" as="targetPoint" />
          </mxGeometry>
        </mxCell>
        <mxCell id="4NQOsVs-KkwyuoudooMm-27" value="" style="group" vertex="1" connectable="0" parent="1">
          <mxGeometry x="145" y="958.5" width="90" height="100" as="geometry" />
        </mxCell>
        <mxCell id="4NQOsVs-KkwyuoudooMm-28" value="" style="html=1;whiteSpace=wrap;shape=isoCube2;backgroundOutline=1;isoAngle=15;movable=1;resizable=1;rotatable=1;deletable=1;editable=1;locked=0;connectable=1;rounded=0;" vertex="1" parent="4NQOsVs-KkwyuoudooMm-27">
          <mxGeometry width="90" height="100" as="geometry" />
        </mxCell>
        <mxCell id="4NQOsVs-KkwyuoudooMm-29" value="DenseNet" style="swimlane;fontStyle=1;childLayout=stackLayout;horizontal=1;startSize=26;horizontalStack=0;resizeParent=1;resizeParentMax=0;resizeLast=0;collapsible=1;marginBottom=0;strokeColor=none;opacity=0;fontSize=13;" vertex="1" parent="1">
          <mxGeometry x="931.1100000000001" y="1040.5" width="90" height="20" as="geometry" />
        </mxCell>
        <mxCell id="4NQOsVs-KkwyuoudooMm-30" value="" style="group" vertex="1" connectable="0" parent="1">
          <mxGeometry x="1204.5" y="949.5" width="75" height="120" as="geometry" />
        </mxCell>
        <mxCell id="4NQOsVs-KkwyuoudooMm-31" value="" style="rounded=0;whiteSpace=wrap;html=1;rotation=90;" vertex="1" parent="4NQOsVs-KkwyuoudooMm-30">
          <mxGeometry x="-52.5" y="52.5" width="120" height="15" as="geometry" />
        </mxCell>
        <mxCell id="4NQOsVs-KkwyuoudooMm-32" value="" style="endArrow=none;html=1;entryX=0.032;entryY=1.007;entryDx=0;entryDy=0;entryPerimeter=0;exitX=1;exitY=0;exitDx=0;exitDy=0;" edge="1" parent="4NQOsVs-KkwyuoudooMm-30" source="4NQOsVs-KkwyuoudooMm-31" target="4NQOsVs-KkwyuoudooMm-42">
          <mxGeometry width="50" height="50" relative="1" as="geometry">
            <mxPoint x="17.5" y="118.5" as="sourcePoint" />
            <mxPoint x="57.5" y="8.5" as="targetPoint" />
          </mxGeometry>
        </mxCell>
        <mxCell id="4NQOsVs-KkwyuoudooMm-33" value="" style="endArrow=none;html=1;entryX=0.142;entryY=1.007;entryDx=0;entryDy=0;entryPerimeter=0;exitX=0.904;exitY=0.02;exitDx=0;exitDy=0;exitPerimeter=0;" edge="1" parent="4NQOsVs-KkwyuoudooMm-30" source="4NQOsVs-KkwyuoudooMm-31" target="4NQOsVs-KkwyuoudooMm-42">
          <mxGeometry width="50" height="50" relative="1" as="geometry">
            <mxPoint x="17.5" y="118.70999999999998" as="sourcePoint" />
            <mxPoint x="61.5" y="2.710000000000008" as="targetPoint" />
          </mxGeometry>
        </mxCell>
        <mxCell id="4NQOsVs-KkwyuoudooMm-34" value="" style="endArrow=none;html=1;entryX=0.25;entryY=1;entryDx=0;entryDy=0;exitX=0.788;exitY=-0.14;exitDx=0;exitDy=0;exitPerimeter=0;" edge="1" parent="4NQOsVs-KkwyuoudooMm-30" target="4NQOsVs-KkwyuoudooMm-42">
          <mxGeometry width="50" height="50" relative="1" as="geometry">
            <mxPoint x="16.09999999999991" y="94.56000000000006" as="sourcePoint" />
            <mxPoint x="59" y="30.710000000000036" as="targetPoint" />
          </mxGeometry>
        </mxCell>
        <mxCell id="4NQOsVs-KkwyuoudooMm-35" value="" style="endArrow=none;html=1;entryX=0.352;entryY=0.98;entryDx=0;entryDy=0;entryPerimeter=0;exitX=0.687;exitY=-0.015;exitDx=0;exitDy=0;exitPerimeter=0;" edge="1" parent="4NQOsVs-KkwyuoudooMm-30" source="4NQOsVs-KkwyuoudooMm-31" target="4NQOsVs-KkwyuoudooMm-42">
          <mxGeometry width="50" height="50" relative="1" as="geometry">
            <mxPoint x="17.5" y="78.5" as="sourcePoint" />
            <mxPoint x="60.39999999999998" y="30.50000000000003" as="targetPoint" />
          </mxGeometry>
        </mxCell>
        <mxCell id="4NQOsVs-KkwyuoudooMm-36" value="" style="endArrow=none;html=1;exitX=0.568;exitY=-0.078;exitDx=0;exitDy=0;exitPerimeter=0;entryX=0.47;entryY=1.005;entryDx=0;entryDy=0;entryPerimeter=0;" edge="1" parent="4NQOsVs-KkwyuoudooMm-30" target="4NQOsVs-KkwyuoudooMm-42">
          <mxGeometry width="50" height="50" relative="1" as="geometry">
            <mxPoint x="14.500000000000114" y="68.83000000000004" as="sourcePoint" />
            <mxPoint x="58.82499999999993" y="55.500000000000114" as="targetPoint" />
          </mxGeometry>
        </mxCell>
        <mxCell id="4NQOsVs-KkwyuoudooMm-37" value="" style="endArrow=none;html=1;entryX=0.032;entryY=1.007;entryDx=0;entryDy=0;entryPerimeter=0;exitX=1;exitY=0;exitDx=0;exitDy=0;" edge="1" parent="4NQOsVs-KkwyuoudooMm-30">
          <mxGeometry width="50" height="50" relative="1" as="geometry">
            <mxPoint x="15.5" y="1" as="sourcePoint" />
            <mxPoint x="59.5" y="120" as="targetPoint" />
          </mxGeometry>
        </mxCell>
        <mxCell id="4NQOsVs-KkwyuoudooMm-38" value="" style="endArrow=none;html=1;entryX=0.142;entryY=1.007;entryDx=0;entryDy=0;entryPerimeter=0;exitX=0.904;exitY=0.02;exitDx=0;exitDy=0;exitPerimeter=0;" edge="1" parent="4NQOsVs-KkwyuoudooMm-30">
          <mxGeometry width="50" height="50" relative="1" as="geometry">
            <mxPoint x="15.5" y="14" as="sourcePoint" />
            <mxPoint x="60.5" y="108" as="targetPoint" />
          </mxGeometry>
        </mxCell>
        <mxCell id="4NQOsVs-KkwyuoudooMm-39" value="" style="endArrow=none;html=1;entryX=0.25;entryY=1;entryDx=0;entryDy=0;exitX=0.788;exitY=-0.14;exitDx=0;exitDy=0;exitPerimeter=0;" edge="1" parent="4NQOsVs-KkwyuoudooMm-30">
          <mxGeometry width="50" height="50" relative="1" as="geometry">
            <mxPoint x="15.099999999999909" y="26.999999999999886" as="sourcePoint" />
            <mxPoint x="59.5" y="94.05999999999995" as="targetPoint" />
          </mxGeometry>
        </mxCell>
        <mxCell id="4NQOsVs-KkwyuoudooMm-40" value="" style="endArrow=none;html=1;entryX=0.352;entryY=0.98;entryDx=0;entryDy=0;entryPerimeter=0;exitX=0.687;exitY=-0.015;exitDx=0;exitDy=0;exitPerimeter=0;" edge="1" parent="4NQOsVs-KkwyuoudooMm-30">
          <mxGeometry width="50" height="50" relative="1" as="geometry">
            <mxPoint x="15.5" y="39" as="sourcePoint" />
            <mxPoint x="60.5" y="82" as="targetPoint" />
          </mxGeometry>
        </mxCell>
        <mxCell id="4NQOsVs-KkwyuoudooMm-41" value="" style="endArrow=none;html=1;exitX=0.568;exitY=-0.078;exitDx=0;exitDy=0;exitPerimeter=0;entryX=0.47;entryY=1.005;entryDx=0;entryDy=0;entryPerimeter=0;" edge="1" parent="4NQOsVs-KkwyuoudooMm-30">
          <mxGeometry width="50" height="50" relative="1" as="geometry">
            <mxPoint x="14.500000000000114" y="52.999999999999886" as="sourcePoint" />
            <mxPoint x="59.5" y="68.32999999999993" as="targetPoint" />
          </mxGeometry>
        </mxCell>
        <mxCell id="4NQOsVs-KkwyuoudooMm-42" value="" style="rounded=0;whiteSpace=wrap;html=1;rotation=90;" vertex="1" parent="4NQOsVs-KkwyuoudooMm-30">
          <mxGeometry x="7.5" y="52.5" width="120" height="15" as="geometry" />
        </mxCell>
        <mxCell id="4NQOsVs-KkwyuoudooMm-43" value="Fully Connected Layer" style="swimlane;fontStyle=1;childLayout=stackLayout;horizontal=1;startSize=26;horizontalStack=0;resizeParent=1;resizeParentMax=0;resizeLast=0;collapsible=1;marginBottom=0;strokeColor=none;opacity=0;fontSize=10;" vertex="1" parent="1">
          <mxGeometry x="1160.13" y="1070.5" width="163.75" height="20" as="geometry" />
        </mxCell>
        <mxCell id="4NQOsVs-KkwyuoudooMm-46" value="(28, 3)&#xa;GT label" style="swimlane;fontStyle=1;childLayout=stackLayout;horizontal=1;startSize=26;horizontalStack=0;resizeParent=1;resizeParentMax=0;resizeLast=0;collapsible=1;marginBottom=0;strokeColor=none;opacity=0;" vertex="1" parent="1">
          <mxGeometry x="300" y="1160" width="83" height="20" as="geometry" />
        </mxCell>
        <mxCell id="4NQOsVs-KkwyuoudooMm-47" value="" style="endArrow=classic;html=1;rounded=0;exitX=1;exitY=0.5;exitDx=0;exitDy=0;" edge="1" parent="1">
          <mxGeometry width="50" height="50" relative="1" as="geometry">
            <mxPoint x="375" y="1170" as="sourcePoint" />
            <mxPoint x="429" y="1170" as="targetPoint" />
          </mxGeometry>
        </mxCell>
        <mxCell id="4NQOsVs-KkwyuoudooMm-48" value="" style="endArrow=classic;html=1;rounded=0;" edge="1" parent="1">
          <mxGeometry width="50" height="50" relative="1" as="geometry">
            <mxPoint x="341" y="1033.5" as="sourcePoint" />
            <mxPoint x="341" y="1150" as="targetPoint" />
          </mxGeometry>
        </mxCell>
        <mxCell id="4NQOsVs-KkwyuoudooMm-50" value="" style="rounded=0;whiteSpace=wrap;html=1;rotation=90;" vertex="1" parent="1">
          <mxGeometry x="389.94" y="1157.72" width="118.34" height="20" as="geometry" />
        </mxCell>
        <mxCell id="4NQOsVs-KkwyuoudooMm-51" value="" style="ellipse;whiteSpace=wrap;html=1;aspect=fixed;" vertex="1" parent="1">
          <mxGeometry x="439.61" y="1111" width="19" height="19" as="geometry" />
        </mxCell>
        <mxCell id="4NQOsVs-KkwyuoudooMm-52" value="" style="ellipse;whiteSpace=wrap;html=1;aspect=fixed;" vertex="1" parent="1">
          <mxGeometry x="439.61" y="1130" width="19" height="19" as="geometry" />
        </mxCell>
        <mxCell id="4NQOsVs-KkwyuoudooMm-53" value="" style="ellipse;whiteSpace=wrap;html=1;aspect=fixed;" vertex="1" parent="1">
          <mxGeometry x="439.61" y="1149" width="19" height="19" as="geometry" />
        </mxCell>
        <mxCell id="4NQOsVs-KkwyuoudooMm-54" value="" style="ellipse;whiteSpace=wrap;html=1;aspect=fixed;" vertex="1" parent="1">
          <mxGeometry x="439.61" y="1168" width="19" height="19" as="geometry" />
        </mxCell>
        <mxCell id="4NQOsVs-KkwyuoudooMm-55" value="" style="ellipse;whiteSpace=wrap;html=1;aspect=fixed;" vertex="1" parent="1">
          <mxGeometry x="439.61" y="1187" width="19" height="19" as="geometry" />
        </mxCell>
        <mxCell id="4NQOsVs-KkwyuoudooMm-56" value="" style="ellipse;whiteSpace=wrap;html=1;aspect=fixed;" vertex="1" parent="1">
          <mxGeometry x="439.61" y="1206" width="19" height="19" as="geometry" />
        </mxCell>
        <mxCell id="4NQOsVs-KkwyuoudooMm-57" value="Embedding" style="swimlane;fontStyle=1;childLayout=stackLayout;horizontal=1;startSize=26;horizontalStack=0;resizeParent=1;resizeParentMax=0;resizeLast=0;collapsible=1;marginBottom=0;strokeColor=none;opacity=0;" vertex="1" parent="1">
          <mxGeometry x="407.61" y="1230" width="83" height="20" as="geometry" />
        </mxCell>
        <mxCell id="4NQOsVs-KkwyuoudooMm-58" value="" style="endArrow=classic;html=1;rounded=0;" edge="1" parent="1">
          <mxGeometry width="50" height="50" relative="1" as="geometry">
            <mxPoint x="538.11" y="1170" as="sourcePoint" />
            <mxPoint x="538" y="1030" as="targetPoint" />
          </mxGeometry>
        </mxCell>
        <mxCell id="4NQOsVs-KkwyuoudooMm-59" value="" style="endArrow=none;html=1;rounded=0;" edge="1" parent="1">
          <mxGeometry width="50" height="50" relative="1" as="geometry">
            <mxPoint x="475.61" y="1169.83" as="sourcePoint" />
            <mxPoint x="538.5" y="1170.11" as="targetPoint" />
          </mxGeometry>
        </mxCell>
        <mxCell id="4NQOsVs-KkwyuoudooMm-60" value="" style="ellipse;whiteSpace=wrap;html=1;aspect=fixed;" vertex="1" parent="1">
          <mxGeometry x="527.11" y="999.5" width="20" height="20" as="geometry" />
        </mxCell>
        <mxCell id="4NQOsVs-KkwyuoudooMm-61" value="" style="endArrow=none;html=1;rounded=0;" edge="1" parent="1">
          <mxGeometry width="50" height="50" relative="1" as="geometry">
            <mxPoint x="537" y="1020" as="sourcePoint" />
            <mxPoint x="537.11" y="999.5" as="targetPoint" />
          </mxGeometry>
        </mxCell>
        <mxCell id="4NQOsVs-KkwyuoudooMm-62" value="" style="endArrow=none;html=1;rounded=0;entryX=1;entryY=0.5;entryDx=0;entryDy=0;exitX=0;exitY=0.5;exitDx=0;exitDy=0;" edge="1" parent="1" source="4NQOsVs-KkwyuoudooMm-60" target="4NQOsVs-KkwyuoudooMm-60">
          <mxGeometry width="50" height="50" relative="1" as="geometry">
            <mxPoint x="537.11" y="1019.75" as="sourcePoint" />
            <mxPoint x="537.22" y="999.25" as="targetPoint" />
          </mxGeometry>
        </mxCell>
        <mxCell id="4NQOsVs-KkwyuoudooMm-63" value="concat" style="swimlane;fontStyle=1;childLayout=stackLayout;horizontal=1;startSize=26;horizontalStack=0;resizeParent=1;resizeParentMax=0;resizeLast=0;collapsible=1;marginBottom=0;strokeColor=none;opacity=0;" vertex="1" parent="1">
          <mxGeometry x="495.60999999999996" y="973.5" width="83" height="20" as="geometry" />
        </mxCell>
        <mxCell id="4NQOsVs-KkwyuoudooMm-64" value="" style="endArrow=classic;html=1;rounded=0;" edge="1" parent="1">
          <mxGeometry width="50" height="50" relative="1" as="geometry">
            <mxPoint x="560" y="1010" as="sourcePoint" />
            <mxPoint x="630" y="1010" as="targetPoint" />
          </mxGeometry>
        </mxCell>
        <mxCell id="4NQOsVs-KkwyuoudooMm-65" value="" style="html=1;whiteSpace=wrap;shape=isoCube2;backgroundOutline=1;isoAngle=15;rounded=0;" vertex="1" parent="1">
          <mxGeometry x="650.61" y="987.5" width="30" height="33.33" as="geometry" />
        </mxCell>
        <mxCell id="4NQOsVs-KkwyuoudooMm-66" value="2 x 160 x 160 x 160" style="swimlane;fontStyle=1;childLayout=stackLayout;horizontal=1;startSize=26;horizontalStack=0;resizeParent=1;resizeParentMax=0;resizeLast=0;collapsible=1;marginBottom=0;strokeColor=none;opacity=0;" vertex="1" parent="1">
          <mxGeometry x="627.11" y="958.5" width="95" height="20" as="geometry" />
        </mxCell>
        <mxCell id="4NQOsVs-KkwyuoudooMm-69" value="" style="html=1;whiteSpace=wrap;shape=isoCube2;backgroundOutline=1;isoAngle=15;rounded=0;" vertex="1" parent="1">
          <mxGeometry x="666" y="994.83" width="30" height="33.33" as="geometry" />
        </mxCell>
        <mxCell id="4NQOsVs-KkwyuoudooMm-70" value="" style="endArrow=classic;html=1;rounded=0;" edge="1" parent="1">
          <mxGeometry width="50" height="50" relative="1" as="geometry">
            <mxPoint x="722.11" y="1008.91" as="sourcePoint" />
            <mxPoint x="792.11" y="1008.91" as="targetPoint" />
          </mxGeometry>
        </mxCell>
      </root>
    </mxGraphModel>
  </diagram>
</mxfile>
